<?xml version="1.0"?>
<svg xmlns="http://www.w3.org/2000/svg" viewBox="0 0 24 24">
    <path d="M 3 2 L 3 4 L 7 4 L 7 2 L 3 2 z M 8 2 L 8 4 L 12 4 L 12 2 L 8 2 z M 3 5 L 3 12 L 7 12 L 7 5 L 3 5 z M 8 5 L 8 12 L 12 12 L 12 5 L 8 5 z M 19.9375 5.5625 L 17 6.21875 L 17.21875 7.1875 L 20.15625 6.53125 L 19.9375 5.5625 z M 13 6 L 13 7 L 16 7 L 16 6 L 13 6 z M 20.34375 7.53125 L 17.4375 8.15625 L 18.5 13.03125 L 21.4375 12.40625 L 20.34375 7.53125 z M 13 8 L 13 13 L 16 13 L 16 8 L 13 8 z M 3 13 L 3 15 L 7 15 L 7 13 L 3 13 z M 8 13 L 8 15 L 12 15 L 12 13 L 8 13 z M 21.65625 13.375 L 18.71875 14.03125 L 18.9375 15 L 21.875 14.34375 L 21.65625 13.375 z M 13 14 L 13 15 L 16 15 L 16 14 L 13 14 z M 2 16 L 2 19 L 4 19 L 4 21 C 4 21.552 4.448 22 5 22 C 5.552 22 6 21.552 6 21 L 6 19 L 18 19 L 18 21 C 18 21.552 18.448 22 19 22 C 19.552 22 20 21.552 20 21 L 20 19 L 22 19 L 22 16 L 2 16 z"/>
</svg>
