<?xml version="1.0" encoding="iso-8859-1"?>
<!-- Generator: Adobe Illustrator 20.1.0, SVG Export Plug-In . SVG Version: 6.00 Build 0)  -->
<svg xmlns="http://www.w3.org/2000/svg" xmlns:xlink="http://www.w3.org/1999/xlink" version="1.1" id="&#1057;&#1083;&#1086;&#1081;_1" x="0px" y="0px" viewBox="0 0 64 64" style="enable-background:new 0 0 64 64;" xml:space="preserve">
<linearGradient id="SVGID_1__44780" gradientUnits="userSpaceOnUse" x1="32" y1="7.3333" x2="32" y2="56.0285" spreadMethod="reflect">
	<stop offset="0" style="stop-color:#1A6DFF"/>
	<stop offset="1" style="stop-color:#C822FF"/>
</linearGradient>
<path style="fill:url(#SVGID_1__44780);" d="M56,45h-3V15c0-1.103-0.897-2-2-2h-8v-2c0-1.103-0.897-2-2-2h-8c-1.103,0-2,0.897-2,2v7h-8v-2  c0-1.103-0.897-2-2-2h-8c-1.103,0-2,0.897-2,2v29H8c-1.103,0-2,0.897-2,2v2c0,1.103,0.897,2,2,2h6v2c0,1.103,0.897,2,2,2h6  c1.103,0,2-0.897,2-2v-2h16v2c0,1.103,0.897,2,2,2h6c1.103,0,2-0.897,2-2v-2h6c1.103,0,2-0.897,2-2v-2C58,45.897,57.103,45,56,45z   M33,15h8v26h-8V20V15z M51,41h-8V19h8V41z M31,41h-8V24h8V41z M21,41h-8V20h8V41z M23,43h8v2h-8V43z M33,43h8v2h-8V43z M43,43h8v2  h-8V43z M51,15v2h-8v-2H51z M41,11v2h-8v-2H41z M31,20v2h-8v-2H31z M21,16v2h-8v-2H21z M13,43h8v2h-8V43z M22,53h-6v-2h6V53z M48,53  h-6v-2h6V53z M56,49h-8h-6H22h-6H8v-2h5h8h2h8h2h8h2h8h5V49z"/>
<linearGradient id="SVGID_2__44780" gradientUnits="userSpaceOnUse" x1="17" y1="7.3333" x2="17" y2="56.0285" spreadMethod="reflect">
	<stop offset="0" style="stop-color:#1A6DFF"/>
	<stop offset="1" style="stop-color:#C822FF"/>
</linearGradient>
<rect x="16" y="22" style="fill:url(#SVGID_2__44780);" width="2" height="17"/>
<linearGradient id="SVGID_3__44780" gradientUnits="userSpaceOnUse" x1="27" y1="7.3333" x2="27" y2="56.0285" spreadMethod="reflect">
	<stop offset="0" style="stop-color:#1A6DFF"/>
	<stop offset="1" style="stop-color:#C822FF"/>
</linearGradient>
<rect x="26" y="26" style="fill:url(#SVGID_3__44780);" width="2" height="13"/>
<linearGradient id="SVGID_4__44780" gradientUnits="userSpaceOnUse" x1="37" y1="7.3333" x2="37" y2="56.0285" spreadMethod="reflect">
	<stop offset="0" style="stop-color:#1A6DFF"/>
	<stop offset="1" style="stop-color:#C822FF"/>
</linearGradient>
<rect x="36" y="17" style="fill:url(#SVGID_4__44780);" width="2" height="22"/>
<linearGradient id="SVGID_5__44780" gradientUnits="userSpaceOnUse" x1="47" y1="7.3333" x2="47" y2="56.0285" spreadMethod="reflect">
	<stop offset="0" style="stop-color:#1A6DFF"/>
	<stop offset="1" style="stop-color:#C822FF"/>
</linearGradient>
<rect x="46" y="21" style="fill:url(#SVGID_5__44780);" width="2" height="18"/>
<linearGradient id="SVGID_6__44780" gradientUnits="userSpaceOnUse" x1="19" y1="50.5833" x2="19" y2="53.5833" spreadMethod="reflect">
	<stop offset="0" style="stop-color:#6DC7FF"/>
	<stop offset="1" style="stop-color:#E6ABFF"/>
</linearGradient>
<rect x="16" y="51" style="fill:url(#SVGID_6__44780);" width="6" height="2"/>
<linearGradient id="SVGID_7__44780" gradientUnits="userSpaceOnUse" x1="45" y1="50.5833" x2="45" y2="53.5833" spreadMethod="reflect">
	<stop offset="0" style="stop-color:#6DC7FF"/>
	<stop offset="1" style="stop-color:#E6ABFF"/>
</linearGradient>
<rect x="42" y="51" style="fill:url(#SVGID_7__44780);" width="6" height="2"/>
</svg>
